<svg xmlns="http://www.w3.org/2000/svg" xmlns:xlink="http://www.w3.org/1999/xlink" width="500" zoomAndPan="magnify" viewBox="0 0 375 374.999991" height="500" preserveAspectRatio="xMidYMid meet" version="1.0"><defs><clipPath id="1698591c53">
<path d="M 63.121094 40 L 324 40 L 324 323 L 63.121094 323 Z M 63.121094 40 " clip-rule="nonzero"/>
</clipPath></defs>

<g clip-path="url(#1698591c53)">
<path fill="#8c52ff" d="M 148.050781 304.894531 C 145.984375 305.648438 143.730469 306.402344 141.664062 306.964844 C 128.886719 310.164062 115.355469 308.285156 103.519531 
301.507812 C 87.359375 292.09375 77.589844 275.339844 77.589844 256.519531 
L 77.589844 107.433594 C 77.589844 96.703125 80.59375 86.726562 86.230469 
78.445312 C 90.554688 72.042969 96.378906 66.585938 103.332031 62.441406 
C 111.035156 58.113281 119.113281 55.667969 127.570312 55.476562 L 127.570312 
182.164062 C 127.570312 186.492188 131.140625 190.070312 135.460938 190.070312 
L 148.050781 190.070312 Z M 290.859375 124.375 L 162.519531 49.832031 C 
141.851562 37.785156 117.046875 37.785156 96.191406 49.832031 C 87.546875 
54.914062 80.40625 61.5 74.957031 69.21875 C 67.253906 80.136719 63.121094 
93.3125 63.121094 107.433594 L 63.121094 256.328125 C 63.121094 280.425781 
75.519531 302.070312 96.191406 313.929688 C 106.527344 319.953125 117.988281 
322.964844 129.449219 322.964844 C 134.335938 322.964844 139.222656 322.402344 
143.917969 321.273438 C 147.863281 320.332031 153.125 319.203125 156.695312 
316.941406 C 156.695312 316.941406 156.882812 316.941406 157.070312 316.753906
 L 157.070312 189.691406 L 169.660156 189.691406 C 170.039062 189.691406 
 170.601562 189.691406 170.976562 189.503906 C 174.546875 188.75 177.367188 
 185.550781 177.367188 181.785156 L 177.367188 75.242188 L 209.875 94.066406 
 L 209.875 181.976562 C 209.875 186.304688 213.441406 189.882812 217.765625 
 189.882812 L 230.355469 189.882812 L 230.355469 257.835938 L 223.964844 
 261.601562 L 170.226562 292.660156 L 170.226562 309.601562 L 239.1875 
 269.695312 L 239.1875 252.753906 L 239 252.753906 L 239 189.882812 
 L 251.589844 189.882812 C 251.964844 189.882812 252.527344 189.882812 
 252.902344 189.691406 C 256.472656 188.941406 259.292969 185.738281 
 259.292969 181.976562 L 259.292969 122.867188 L 283.53125 136.984375 
 C 299.691406 146.398438 309.460938 163.152344 309.460938 181.976562 
 C 309.460938 196.09375 304.011719 209.269531 294.242188 218.871094 
 C 291.046875 222.070312 287.476562 224.707031 283.53125 226.964844 
 L 252.339844 245.035156 L 252.339844 261.976562 L 290.859375 239.578125 
 C 296.308594 236.375 301.382812 232.421875 305.515625 228.09375 
 C 317.167969 215.859375 323.929688 199.667969 323.929688 181.976562 
 C 324.121094 157.878906 311.71875 136.421875 290.859375 124.375 Z M 
 290.859375 124.375 " fill-opacity="1" fill-rule="nonzero"/></g>

<path fill="#ffffff" d="M 158.574219 65.078125 L 169.660156 71.480469 L 169.660156 155.246094 Z M 158.574219 65.078125 " fill-opacity="1" fill-rule="nonzero"/>
<path fill="#ffffff" d="M 246.140625 114.398438 L 253.65625 118.726562 L 253.65625 175.011719 Z M 246.140625 114.398438 " fill-opacity="1" fill-rule="nonzero"/></svg>